<?xml version="1.0" encoding="utf-8" standalone="no"?>
<!DOCTYPE svg PUBLIC "-//W3C//DTD SVG 1.1//EN"
  "http://www.w3.org/Graphics/SVG/1.1/DTD/svg11.dtd">
<svg xmlns:xlink="http://www.w3.org/1999/xlink" width="460.8pt" height="288pt" viewBox="0 0 460.8 288" xmlns="http://www.w3.org/2000/svg" version="1.1">
 <metadata>
  <rdf:RDF xmlns:dc="http://purl.org/dc/elements/1.1/" xmlns:cc="http://creativecommons.org/ns#" xmlns:rdf="http://www.w3.org/1999/02/22-rdf-syntax-ns#">
   <cc:Work>
    <dc:type rdf:resource="http://purl.org/dc/dcmitype/StillImage"/>
    <dc:date>2023-02-02T14:46:44.092053</dc:date>
    <dc:format>image/svg+xml</dc:format>
    <dc:creator>
     <cc:Agent>
      <dc:title>Matplotlib v3.6.3, https://matplotlib.org/</dc:title>
     </cc:Agent>
    </dc:creator>
   </cc:Work>
  </rdf:RDF>
 </metadata>
 <defs>
  <style type="text/css">*{stroke-linejoin: round; stroke-linecap: butt}</style>
 </defs>
 <g id="figure_1">
  <g id="patch_1">
   <path d="M 0 288 
L 460.8 288 
L 460.8 0 
L 0 0 
z
" style="fill: #ffffff"/>
  </g>
  <g id="axes_1">
   <g id="patch_2">
    <path d="M 253.08152 38.598933 
L 289.417332 135.49443 
L 290.168619 137.859997 
L 290.673902 140.290024 
L 290.927876 142.758998 
L 290.927876 145.241002 
L 290.673902 147.709976 
L 290.168619 150.140003 
L 289.417332 152.50557 
L 253.08152 249.401067 
L 252.151556 251.556918 
L 251.017252 253.612612 
L 249.689264 255.548838 
L 248.180067 257.347406 
L 246.503839 258.991421 
L 244.676327 260.465438 
L 242.714699 261.755609 
L 240.637384 262.849815 
L 238.463896 263.737775 
L 236.214654 264.411149 
L 233.910787 264.863611 
L 231.573938 265.090909 
L 229.226062 265.090909 
L 226.889213 264.863611 
L 224.585346 264.411149 
L 222.336104 263.737775 
L 220.162616 262.849815 
L 218.085301 261.755609 
L 216.123673 260.465438 
L 214.296161 258.991421 
L 212.619933 257.347406 
L 211.110736 255.548838 
L 209.782748 253.612612 
L 208.648444 251.556918 
L 207.71848 249.401067 
L 171.382668 152.50557 
L 170.631381 150.140003 
L 170.126098 147.709976 
L 169.872124 145.241002 
L 169.872124 142.758998 
L 170.126098 140.290024 
L 170.631381 137.859997 
L 171.382668 135.49443 
L 207.71848 38.598933 
L 208.648444 36.443082 
L 209.782748 34.387388 
L 211.110736 32.451162 
L 212.619933 30.652594 
L 214.296161 29.008579 
L 216.123673 27.534562 
L 218.085301 26.244391 
L 220.162616 25.150185 
L 222.336104 24.262225 
L 224.585346 23.588851 
L 226.889213 23.136389 
L 229.226062 22.909091 
L 231.573938 22.909091 
L 233.910787 23.136389 
L 236.214654 23.588851 
L 238.463896 24.262225 
L 240.637384 25.150185 
L 242.714699 26.244391 
L 244.676327 27.534562 
L 246.503839 29.008579 
L 248.180067 30.652594 
L 249.689264 32.451162 
L 251.017252 34.387388 
L 252.151556 36.443082 
z
" clip-path="url(#p2fe66991ed)" style="fill: #ff0000; opacity: 0.5; stroke: #ff0000; stroke-linejoin: miter"/>
   </g>
   <g id="patch_3">
    <path d="M 230.4 41.36933 
L 250.575959 51.544895 
L 270.751918 71.786764 
L 290.927876 92.028634 
L 307.741175 121.588363 
L 314.466495 144 
L 307.741175 166.411637 
L 290.927876 195.971366 
L 270.751918 216.213236 
L 250.575959 236.455105 
L 230.4 246.63067 
L 210.224041 236.455105 
L 190.048082 216.213236 
L 169.872124 195.971366 
L 153.058825 166.411637 
L 146.333505 144 
L 153.058825 121.588363 
L 169.872124 92.028634 
L 190.048082 71.786764 
L 210.224041 51.544895 
z
" clip-path="url(#p2fe66991ed)" style="fill: #0000ff; opacity: 0.5; stroke: #0000ff; stroke-linejoin: miter"/>
   </g>
   <g id="line2d_1">
    <path d="M 40.765165 116.36323 
L 135.582583 116.36323 
L 136.439026 116.348037 
L 137.295469 116.3024 
L 138.151913 116.226146 
L 139.008356 116.118985 
L 139.864799 115.980501 
L 140.721242 115.810146 
L 141.577686 115.607229 
L 142.434129 115.370898 
L 143.290572 115.100126 
L 144.147016 114.793682 
L 145.003459 114.450101 
L 145.859902 114.067644 
L 146.716345 113.644244 
L 147.572789 113.177439 
L 148.429232 112.664277 
L 149.285675 112.101199 
L 150.142119 111.483863 
L 150.998562 110.806909 
L 151.855005 110.063614 
L 152.711448 109.245369 
L 213.271134 48.487848 
L 214.127578 47.669535 
L 214.984021 46.926175 
L 215.840464 46.249162 
L 216.696907 45.631771 
L 217.553351 45.068642 
L 218.409794 44.555433 
L 219.266237 44.088583 
L 220.122681 43.665143 
L 220.979124 43.282649 
L 221.835567 42.939035 
L 222.69201 42.632561 
L 223.548454 42.361762 
L 224.404897 42.125408 
L 225.26134 41.922471 
L 226.117784 41.752099 
L 226.974227 41.613601 
L 227.83067 41.506429 
L 228.687113 41.430167 
L 229.543557 41.384525 
L 230.4 41.36933 
L 231.256443 41.384525 
L 232.112887 41.430167 
L 232.96933 41.506429 
L 233.825773 41.613601 
L 234.682216 41.752099 
L 235.53866 41.922471 
L 236.395103 42.125408 
L 237.251546 42.361762 
L 238.10799 42.632561 
L 238.964433 42.939035 
L 239.820876 43.282649 
L 240.677319 43.665143 
L 241.533763 44.088583 
L 242.390206 44.555433 
L 243.246649 45.068642 
L 244.103093 45.631771 
L 244.959536 46.249162 
L 245.815979 46.926175 
L 246.672422 47.669535 
L 247.528866 48.487848 
L 308.088552 109.245369 
L 308.944995 110.063614 
L 309.801438 110.806909 
L 310.657881 111.483863 
L 311.514325 112.101199 
L 312.370768 112.664277 
L 313.227211 113.177439 
L 314.083655 113.644244 
L 314.940098 114.067644 
L 315.796541 114.450101 
L 316.652984 114.793682 
L 317.509428 115.100126 
L 318.365871 115.370898 
L 319.222314 115.607229 
L 320.078758 115.810146 
L 320.935201 115.980501 
L 321.791644 116.118985 
L 322.648087 116.226146 
L 323.504531 116.3024 
L 324.360974 116.348037 
L 325.217417 116.36323 
L 420.034835 116.36323 
" clip-path="url(#p2fe66991ed)" style="fill: none; stroke: #000000; stroke-width: 1.5; stroke-linecap: square"/>
   </g>
   <g id="line2d_2">
    <path d="M 40.765165 171.63677 
L 135.582583 171.63677 
L 136.439026 171.651963 
L 137.295469 171.6976 
L 138.151913 171.773854 
L 139.008356 171.881015 
L 139.864799 172.019499 
L 140.721242 172.189854 
L 141.577686 172.392771 
L 142.434129 172.629102 
L 143.290572 172.899874 
L 144.147016 173.206318 
L 145.003459 173.549899 
L 145.859902 173.932356 
L 146.716345 174.355756 
L 147.572789 174.822561 
L 148.429232 175.335723 
L 149.285675 175.898801 
L 150.142119 176.516137 
L 150.998562 177.193091 
L 151.855005 177.936386 
L 152.711448 178.754631 
L 213.271134 239.512152 
L 214.127578 240.330465 
L 214.984021 241.073825 
L 215.840464 241.750838 
L 216.696907 242.368229 
L 217.553351 242.931358 
L 218.409794 243.444567 
L 219.266237 243.911417 
L 220.122681 244.334857 
L 220.979124 244.717351 
L 221.835567 245.060965 
L 222.69201 245.367439 
L 223.548454 245.638238 
L 224.404897 245.874592 
L 225.26134 246.077529 
L 226.117784 246.247901 
L 226.974227 246.386399 
L 227.83067 246.493571 
L 228.687113 246.569833 
L 229.543557 246.615475 
L 230.4 246.63067 
L 231.256443 246.615475 
L 232.112887 246.569833 
L 232.96933 246.493571 
L 233.825773 246.386399 
L 234.682216 246.247901 
L 235.53866 246.077529 
L 236.395103 245.874592 
L 237.251546 245.638238 
L 238.10799 245.367439 
L 238.964433 245.060965 
L 239.820876 244.717351 
L 240.677319 244.334857 
L 241.533763 243.911417 
L 242.390206 243.444567 
L 243.246649 242.931358 
L 244.103093 242.368229 
L 244.959536 241.750838 
L 245.815979 241.073825 
L 246.672422 240.330465 
L 247.528866 239.512152 
L 308.088552 178.754631 
L 308.944995 177.936386 
L 309.801438 177.193091 
L 310.657881 176.516137 
L 311.514325 175.898801 
L 312.370768 175.335723 
L 313.227211 174.822561 
L 314.083655 174.355756 
L 314.940098 173.932356 
L 315.796541 173.549899 
L 316.652984 173.206318 
L 317.509428 172.899874 
L 318.365871 172.629102 
L 319.222314 172.392771 
L 320.078758 172.189854 
L 320.935201 172.019499 
L 321.791644 171.881015 
L 322.648087 171.773854 
L 323.504531 171.6976 
L 324.360974 171.651963 
L 325.217417 171.63677 
L 420.034835 171.63677 
" clip-path="url(#p2fe66991ed)" style="fill: none; stroke: #000000; stroke-width: 1.5; stroke-linecap: square"/>
   </g>
   <g id="line2d_3">
    <path d="M 230.4 277.2 
L 230.4 10.8 
" clip-path="url(#p2fe66991ed)" style="fill: none; stroke-dasharray: 9.6,2.4,1.5,2.4; stroke-dashoffset: 0; stroke: #000000; stroke-width: 1.5"/>
   </g>
   <g id="line2d_4">
    <path d="M 21.801682 144 
L 438.998318 144 
" clip-path="url(#p2fe66991ed)" style="fill: none; stroke-dasharray: 9.6,2.4,1.5,2.4; stroke-dashoffset: 0; stroke: #000000; stroke-width: 1.5"/>
   </g>
   <g id="LineCollection_1">
    <path d="M 230.4 144 
L 230.4 22.909091 
" clip-path="url(#p2fe66991ed)" style="fill: none; stroke: #ff0000; stroke-width: 1.5"/>
    <path d="M 216.949361 144 
L 216.949361 26.991504 
" clip-path="url(#p2fe66991ed)" style="fill: none; stroke: #ff0000; stroke-width: 1.5"/>
    <path d="M 203.498722 144 
L 203.498722 49.851621 
" clip-path="url(#p2fe66991ed)" style="fill: none; stroke: #ff0000; stroke-width: 1.5"/>
    <path d="M 190.048082 144 
L 190.048082 85.719992 
" clip-path="url(#p2fe66991ed)" style="fill: none; stroke: #ff0000; stroke-width: 1.5"/>
    <path d="M 176.597443 144 
L 176.597443 121.588363 
" clip-path="url(#p2fe66991ed)" style="fill: none; stroke: #ff0000; stroke-width: 1.5"/>
   </g>
   <g id="line2d_5">
    <defs>
     <path id="m89b2611216" d="M 3 0 
L -3 -0 
" style="stroke: #ff0000"/>
    </defs>
    <g clip-path="url(#p2fe66991ed)">
     <use xlink:href="#m89b2611216" x="230.4" y="22.909091" style="fill: #ff0000; stroke: #ff0000"/>
     <use xlink:href="#m89b2611216" x="216.949361" y="26.991504" style="fill: #ff0000; stroke: #ff0000"/>
     <use xlink:href="#m89b2611216" x="203.498722" y="49.851621" style="fill: #ff0000; stroke: #ff0000"/>
     <use xlink:href="#m89b2611216" x="190.048082" y="85.719992" style="fill: #ff0000; stroke: #ff0000"/>
     <use xlink:href="#m89b2611216" x="176.597443" y="121.588363" style="fill: #ff0000; stroke: #ff0000"/>
    </g>
   </g>
   <g id="line2d_6">
    <path d="M 176.597443 144 
L 230.4 144 
" clip-path="url(#p2fe66991ed)" style="fill: none; stroke: #000000; stroke-width: 1.5; stroke-linecap: square"/>
   </g>
   <g id="LineCollection_2">
    <path d="M 230.4 144 
L 230.4 41.36933 
" clip-path="url(#p2fe66991ed)" style="fill: none; stroke: #0000ff; stroke-width: 1.5"/>
    <path d="M 250.575959 144 
L 250.575959 51.544895 
" clip-path="url(#p2fe66991ed)" style="fill: none; stroke: #0000ff; stroke-width: 1.5"/>
    <path d="M 270.751918 144 
L 270.751918 71.786764 
" clip-path="url(#p2fe66991ed)" style="fill: none; stroke: #0000ff; stroke-width: 1.5"/>
    <path d="M 290.927876 144 
L 290.927876 92.028634 
" clip-path="url(#p2fe66991ed)" style="fill: none; stroke: #0000ff; stroke-width: 1.5"/>
    <path d="M 307.741175 144 
L 307.741175 121.588363 
" clip-path="url(#p2fe66991ed)" style="fill: none; stroke: #0000ff; stroke-width: 1.5"/>
   </g>
   <g id="line2d_7">
    <defs>
     <path id="m4083496522" d="M 3 0 
L -3 -0 
" style="stroke: #0000ff"/>
    </defs>
    <g clip-path="url(#p2fe66991ed)">
     <use xlink:href="#m4083496522" x="230.4" y="41.36933" style="fill: #0000ff; stroke: #0000ff"/>
     <use xlink:href="#m4083496522" x="250.575959" y="51.544895" style="fill: #0000ff; stroke: #0000ff"/>
     <use xlink:href="#m4083496522" x="270.751918" y="71.786764" style="fill: #0000ff; stroke: #0000ff"/>
     <use xlink:href="#m4083496522" x="290.927876" y="92.028634" style="fill: #0000ff; stroke: #0000ff"/>
     <use xlink:href="#m4083496522" x="307.741175" y="121.588363" style="fill: #0000ff; stroke: #0000ff"/>
    </g>
   </g>
   <g id="line2d_8">
    <path d="M 230.4 144 
L 307.741175 144 
" clip-path="url(#p2fe66991ed)" style="fill: none; stroke: #000000; stroke-width: 1.5; stroke-linecap: square"/>
   </g>
   <g id="legend_1">
    <g id="patch_4">
     <path d="M 344.301443 92.190625 
L 431.998318 92.190625 
Q 433.998318 92.190625 433.998318 90.190625 
L 433.998318 17.8 
Q 433.998318 15.8 431.998318 15.8 
L 344.301443 15.8 
Q 342.301443 15.8 342.301443 17.8 
L 342.301443 90.190625 
Q 342.301443 92.190625 344.301443 92.190625 
z
" style="fill: #ffffff; opacity: 0.8; stroke: #cccccc; stroke-linejoin: miter"/>
    </g>
    <g id="line2d_9">
     <path d="M 346.301443 23.898438 
L 356.301443 23.898438 
L 366.301443 23.898438 
" style="fill: none; stroke: #000000; stroke-width: 1.5; stroke-linecap: square"/>
    </g>
    <g id="text_1">
     <!-- roll surface -->
     <g transform="translate(374.301443 27.398438) scale(0.1 -0.1)">
      <defs>
       <path id="DejaVuSans-72" d="M 2631 2963 
Q 2534 3019 2420 3045 
Q 2306 3072 2169 3072 
Q 1681 3072 1420 2755 
Q 1159 2438 1159 1844 
L 1159 0 
L 581 0 
L 581 3500 
L 1159 3500 
L 1159 2956 
Q 1341 3275 1631 3429 
Q 1922 3584 2338 3584 
Q 2397 3584 2469 3576 
Q 2541 3569 2628 3553 
L 2631 2963 
z
" transform="scale(0.015625)"/>
       <path id="DejaVuSans-6f" d="M 1959 3097 
Q 1497 3097 1228 2736 
Q 959 2375 959 1747 
Q 959 1119 1226 758 
Q 1494 397 1959 397 
Q 2419 397 2687 759 
Q 2956 1122 2956 1747 
Q 2956 2369 2687 2733 
Q 2419 3097 1959 3097 
z
M 1959 3584 
Q 2709 3584 3137 3096 
Q 3566 2609 3566 1747 
Q 3566 888 3137 398 
Q 2709 -91 1959 -91 
Q 1206 -91 779 398 
Q 353 888 353 1747 
Q 353 2609 779 3096 
Q 1206 3584 1959 3584 
z
" transform="scale(0.015625)"/>
       <path id="DejaVuSans-6c" d="M 603 4863 
L 1178 4863 
L 1178 0 
L 603 0 
L 603 4863 
z
" transform="scale(0.015625)"/>
       <path id="DejaVuSans-20" transform="scale(0.015625)"/>
       <path id="DejaVuSans-73" d="M 2834 3397 
L 2834 2853 
Q 2591 2978 2328 3040 
Q 2066 3103 1784 3103 
Q 1356 3103 1142 2972 
Q 928 2841 928 2578 
Q 928 2378 1081 2264 
Q 1234 2150 1697 2047 
L 1894 2003 
Q 2506 1872 2764 1633 
Q 3022 1394 3022 966 
Q 3022 478 2636 193 
Q 2250 -91 1575 -91 
Q 1294 -91 989 -36 
Q 684 19 347 128 
L 347 722 
Q 666 556 975 473 
Q 1284 391 1588 391 
Q 1994 391 2212 530 
Q 2431 669 2431 922 
Q 2431 1156 2273 1281 
Q 2116 1406 1581 1522 
L 1381 1569 
Q 847 1681 609 1914 
Q 372 2147 372 2553 
Q 372 3047 722 3315 
Q 1072 3584 1716 3584 
Q 2034 3584 2315 3537 
Q 2597 3491 2834 3397 
z
" transform="scale(0.015625)"/>
       <path id="DejaVuSans-75" d="M 544 1381 
L 544 3500 
L 1119 3500 
L 1119 1403 
Q 1119 906 1312 657 
Q 1506 409 1894 409 
Q 2359 409 2629 706 
Q 2900 1003 2900 1516 
L 2900 3500 
L 3475 3500 
L 3475 0 
L 2900 0 
L 2900 538 
Q 2691 219 2414 64 
Q 2138 -91 1772 -91 
Q 1169 -91 856 284 
Q 544 659 544 1381 
z
M 1991 3584 
L 1991 3584 
z
" transform="scale(0.015625)"/>
       <path id="DejaVuSans-66" d="M 2375 4863 
L 2375 4384 
L 1825 4384 
Q 1516 4384 1395 4259 
Q 1275 4134 1275 3809 
L 1275 3500 
L 2222 3500 
L 2222 3053 
L 1275 3053 
L 1275 0 
L 697 0 
L 697 3053 
L 147 3053 
L 147 3500 
L 697 3500 
L 697 3744 
Q 697 4328 969 4595 
Q 1241 4863 1831 4863 
L 2375 4863 
z
" transform="scale(0.015625)"/>
       <path id="DejaVuSans-61" d="M 2194 1759 
Q 1497 1759 1228 1600 
Q 959 1441 959 1056 
Q 959 750 1161 570 
Q 1363 391 1709 391 
Q 2188 391 2477 730 
Q 2766 1069 2766 1631 
L 2766 1759 
L 2194 1759 
z
M 3341 1997 
L 3341 0 
L 2766 0 
L 2766 531 
Q 2569 213 2275 61 
Q 1981 -91 1556 -91 
Q 1019 -91 701 211 
Q 384 513 384 1019 
Q 384 1609 779 1909 
Q 1175 2209 1959 2209 
L 2766 2209 
L 2766 2266 
Q 2766 2663 2505 2880 
Q 2244 3097 1772 3097 
Q 1472 3097 1187 3025 
Q 903 2953 641 2809 
L 641 3341 
Q 956 3463 1253 3523 
Q 1550 3584 1831 3584 
Q 2591 3584 2966 3190 
Q 3341 2797 3341 1997 
z
" transform="scale(0.015625)"/>
       <path id="DejaVuSans-63" d="M 3122 3366 
L 3122 2828 
Q 2878 2963 2633 3030 
Q 2388 3097 2138 3097 
Q 1578 3097 1268 2742 
Q 959 2388 959 1747 
Q 959 1106 1268 751 
Q 1578 397 2138 397 
Q 2388 397 2633 464 
Q 2878 531 3122 666 
L 3122 134 
Q 2881 22 2623 -34 
Q 2366 -91 2075 -91 
Q 1284 -91 818 406 
Q 353 903 353 1747 
Q 353 2603 823 3093 
Q 1294 3584 2113 3584 
Q 2378 3584 2631 3529 
Q 2884 3475 3122 3366 
z
" transform="scale(0.015625)"/>
       <path id="DejaVuSans-65" d="M 3597 1894 
L 3597 1613 
L 953 1613 
Q 991 1019 1311 708 
Q 1631 397 2203 397 
Q 2534 397 2845 478 
Q 3156 559 3463 722 
L 3463 178 
Q 3153 47 2828 -22 
Q 2503 -91 2169 -91 
Q 1331 -91 842 396 
Q 353 884 353 1716 
Q 353 2575 817 3079 
Q 1281 3584 2069 3584 
Q 2775 3584 3186 3129 
Q 3597 2675 3597 1894 
z
M 3022 2063 
Q 3016 2534 2758 2815 
Q 2500 3097 2075 3097 
Q 1594 3097 1305 2825 
Q 1016 2553 972 2059 
L 3022 2063 
z
" transform="scale(0.015625)"/>
      </defs>
      <use xlink:href="#DejaVuSans-72"/>
      <use xlink:href="#DejaVuSans-6f" x="38.863281"/>
      <use xlink:href="#DejaVuSans-6c" x="100.044922"/>
      <use xlink:href="#DejaVuSans-6c" x="127.828125"/>
      <use xlink:href="#DejaVuSans-20" x="155.611328"/>
      <use xlink:href="#DejaVuSans-73" x="187.398438"/>
      <use xlink:href="#DejaVuSans-75" x="239.498047"/>
      <use xlink:href="#DejaVuSans-72" x="302.876953"/>
      <use xlink:href="#DejaVuSans-66" x="343.990234"/>
      <use xlink:href="#DejaVuSans-61" x="379.195312"/>
      <use xlink:href="#DejaVuSans-63" x="440.474609"/>
      <use xlink:href="#DejaVuSans-65" x="495.455078"/>
     </g>
    </g>
    <g id="patch_5">
     <path d="M 346.301443 42.076563 
L 366.301443 42.076563 
L 366.301443 35.076563 
L 346.301443 35.076563 
z
" style="fill: #ff0000; opacity: 0.5; stroke: #ff0000; stroke-linejoin: miter"/>
    </g>
    <g id="text_2">
     <!-- in profile -->
     <g transform="translate(374.301443 42.076563) scale(0.1 -0.1)">
      <defs>
       <path id="DejaVuSans-69" d="M 603 3500 
L 1178 3500 
L 1178 0 
L 603 0 
L 603 3500 
z
M 603 4863 
L 1178 4863 
L 1178 4134 
L 603 4134 
L 603 4863 
z
" transform="scale(0.015625)"/>
       <path id="DejaVuSans-6e" d="M 3513 2113 
L 3513 0 
L 2938 0 
L 2938 2094 
Q 2938 2591 2744 2837 
Q 2550 3084 2163 3084 
Q 1697 3084 1428 2787 
Q 1159 2491 1159 1978 
L 1159 0 
L 581 0 
L 581 3500 
L 1159 3500 
L 1159 2956 
Q 1366 3272 1645 3428 
Q 1925 3584 2291 3584 
Q 2894 3584 3203 3211 
Q 3513 2838 3513 2113 
z
" transform="scale(0.015625)"/>
       <path id="DejaVuSans-70" d="M 1159 525 
L 1159 -1331 
L 581 -1331 
L 581 3500 
L 1159 3500 
L 1159 2969 
Q 1341 3281 1617 3432 
Q 1894 3584 2278 3584 
Q 2916 3584 3314 3078 
Q 3713 2572 3713 1747 
Q 3713 922 3314 415 
Q 2916 -91 2278 -91 
Q 1894 -91 1617 61 
Q 1341 213 1159 525 
z
M 3116 1747 
Q 3116 2381 2855 2742 
Q 2594 3103 2138 3103 
Q 1681 3103 1420 2742 
Q 1159 2381 1159 1747 
Q 1159 1113 1420 752 
Q 1681 391 2138 391 
Q 2594 391 2855 752 
Q 3116 1113 3116 1747 
z
" transform="scale(0.015625)"/>
      </defs>
      <use xlink:href="#DejaVuSans-69"/>
      <use xlink:href="#DejaVuSans-6e" x="27.783203"/>
      <use xlink:href="#DejaVuSans-20" x="91.162109"/>
      <use xlink:href="#DejaVuSans-70" x="122.949219"/>
      <use xlink:href="#DejaVuSans-72" x="186.425781"/>
      <use xlink:href="#DejaVuSans-6f" x="225.289062"/>
      <use xlink:href="#DejaVuSans-66" x="286.470703"/>
      <use xlink:href="#DejaVuSans-69" x="321.675781"/>
      <use xlink:href="#DejaVuSans-6c" x="349.458984"/>
      <use xlink:href="#DejaVuSans-65" x="377.242188"/>
     </g>
    </g>
    <g id="patch_6">
     <path d="M 346.301443 56.754688 
L 366.301443 56.754688 
L 366.301443 49.754688 
L 346.301443 49.754688 
z
" style="fill: #0000ff; opacity: 0.5; stroke: #0000ff; stroke-linejoin: miter"/>
    </g>
    <g id="text_3">
     <!-- out profile -->
     <g transform="translate(374.301443 56.754688) scale(0.1 -0.1)">
      <defs>
       <path id="DejaVuSans-74" d="M 1172 4494 
L 1172 3500 
L 2356 3500 
L 2356 3053 
L 1172 3053 
L 1172 1153 
Q 1172 725 1289 603 
Q 1406 481 1766 481 
L 2356 481 
L 2356 0 
L 1766 0 
Q 1100 0 847 248 
Q 594 497 594 1153 
L 594 3053 
L 172 3053 
L 172 3500 
L 594 3500 
L 594 4494 
L 1172 4494 
z
" transform="scale(0.015625)"/>
      </defs>
      <use xlink:href="#DejaVuSans-6f"/>
      <use xlink:href="#DejaVuSans-75" x="61.181641"/>
      <use xlink:href="#DejaVuSans-74" x="124.560547"/>
      <use xlink:href="#DejaVuSans-20" x="163.769531"/>
      <use xlink:href="#DejaVuSans-70" x="195.556641"/>
      <use xlink:href="#DejaVuSans-72" x="259.033203"/>
      <use xlink:href="#DejaVuSans-6f" x="297.896484"/>
      <use xlink:href="#DejaVuSans-66" x="359.078125"/>
      <use xlink:href="#DejaVuSans-69" x="394.283203"/>
      <use xlink:href="#DejaVuSans-6c" x="422.066406"/>
      <use xlink:href="#DejaVuSans-65" x="449.849609"/>
     </g>
    </g>
    <g id="line2d_10">
     <path d="M 356.301443 71.432813 
L 356.301443 66.620313 
" style="fill: none; stroke: #ff0000; stroke-width: 1.5"/>
    </g>
    <g id="line2d_11">
     <path d="M 346.301443 71.432813 
L 366.301443 71.432813 
" style="fill: none; stroke: #000000; stroke-width: 1.5; stroke-linecap: square"/>
    </g>
    <g id="line2d_12">
     <g>
      <use xlink:href="#m89b2611216" x="356.301443" y="66.620313" style="fill: #ff0000; stroke: #ff0000"/>
     </g>
    </g>
    <g id="text_4">
     <!-- in pillars -->
     <g transform="translate(374.301443 71.432813) scale(0.1 -0.1)">
      <use xlink:href="#DejaVuSans-69"/>
      <use xlink:href="#DejaVuSans-6e" x="27.783203"/>
      <use xlink:href="#DejaVuSans-20" x="91.162109"/>
      <use xlink:href="#DejaVuSans-70" x="122.949219"/>
      <use xlink:href="#DejaVuSans-69" x="186.425781"/>
      <use xlink:href="#DejaVuSans-6c" x="214.208984"/>
      <use xlink:href="#DejaVuSans-6c" x="241.992188"/>
      <use xlink:href="#DejaVuSans-61" x="269.775391"/>
      <use xlink:href="#DejaVuSans-72" x="331.054688"/>
      <use xlink:href="#DejaVuSans-73" x="372.167969"/>
     </g>
    </g>
    <g id="line2d_13">
     <path d="M 356.301443 86.110938 
L 356.301443 81.298438 
" style="fill: none; stroke: #0000ff; stroke-width: 1.5"/>
    </g>
    <g id="line2d_14">
     <path d="M 346.301443 86.110938 
L 366.301443 86.110938 
" style="fill: none; stroke: #000000; stroke-width: 1.5; stroke-linecap: square"/>
    </g>
    <g id="line2d_15">
     <g>
      <use xlink:href="#m4083496522" x="356.301443" y="81.298438" style="fill: #0000ff; stroke: #0000ff"/>
     </g>
    </g>
    <g id="text_5">
     <!-- out pillars -->
     <g transform="translate(374.301443 86.110938) scale(0.1 -0.1)">
      <use xlink:href="#DejaVuSans-6f"/>
      <use xlink:href="#DejaVuSans-75" x="61.181641"/>
      <use xlink:href="#DejaVuSans-74" x="124.560547"/>
      <use xlink:href="#DejaVuSans-20" x="163.769531"/>
      <use xlink:href="#DejaVuSans-70" x="195.556641"/>
      <use xlink:href="#DejaVuSans-69" x="259.033203"/>
      <use xlink:href="#DejaVuSans-6c" x="286.816406"/>
      <use xlink:href="#DejaVuSans-6c" x="314.599609"/>
      <use xlink:href="#DejaVuSans-61" x="342.382812"/>
      <use xlink:href="#DejaVuSans-72" x="403.662109"/>
      <use xlink:href="#DejaVuSans-73" x="444.775391"/>
     </g>
    </g>
   </g>
  </g>
 </g>
 <defs>
  <clipPath id="p2fe66991ed">
   <rect x="21.801682" y="10.8" width="417.196636" height="266.4"/>
  </clipPath>
 </defs>
</svg>
