<?xml version="1.0" encoding="utf-8" standalone="no"?>
<!DOCTYPE svg PUBLIC "-//W3C//DTD SVG 1.1//EN"
  "http://www.w3.org/Graphics/SVG/1.1/DTD/svg11.dtd">
<svg xmlns:xlink="http://www.w3.org/1999/xlink" width="460.8pt" height="288pt" viewBox="0 0 460.8 288" xmlns="http://www.w3.org/2000/svg" version="1.1">
 <metadata>
  <rdf:RDF xmlns:dc="http://purl.org/dc/elements/1.1/" xmlns:cc="http://creativecommons.org/ns#" xmlns:rdf="http://www.w3.org/1999/02/22-rdf-syntax-ns#">
   <cc:Work>
    <dc:type rdf:resource="http://purl.org/dc/dcmitype/StillImage"/>
    <dc:date>2023-05-31T14:48:30.434044</dc:date>
    <dc:format>image/svg+xml</dc:format>
    <dc:creator>
     <cc:Agent>
      <dc:title>Matplotlib v3.7.1, https://matplotlib.org/</dc:title>
     </cc:Agent>
    </dc:creator>
   </cc:Work>
  </rdf:RDF>
 </metadata>
 <defs>
  <style type="text/css">*{stroke-linejoin: round; stroke-linecap: butt}</style>
 </defs>
 <g id="figure_1">
  <g id="patch_1">
   <path d="M 0 288 
L 460.8 288 
L 460.8 0 
L 0 0 
z
" style="fill: #ffffff"/>
  </g>
  <g id="axes_1">
   <g id="patch_2">
    <path d="M 253.08152 38.598933 
L 289.417332 135.49443 
L 290.168619 137.859997 
L 290.673902 140.290024 
L 290.927876 142.758998 
L 290.927876 145.241002 
L 290.673902 147.709976 
L 290.168619 150.140003 
L 289.417332 152.50557 
L 253.08152 249.401067 
L 252.151556 251.556918 
L 251.017252 253.612612 
L 249.689264 255.548838 
L 248.180067 257.347406 
L 246.503839 258.991421 
L 244.676327 260.465438 
L 242.714699 261.755609 
L 240.637384 262.849815 
L 238.463896 263.737775 
L 236.214654 264.411149 
L 233.910787 264.863611 
L 231.573938 265.090909 
L 229.226062 265.090909 
L 226.889213 264.863611 
L 224.585346 264.411149 
L 222.336104 263.737775 
L 220.162616 262.849815 
L 218.085301 261.755609 
L 216.123673 260.465438 
L 214.296161 258.991421 
L 212.619933 257.347406 
L 211.110736 255.548838 
L 209.782748 253.612612 
L 208.648444 251.556918 
L 207.71848 249.401067 
L 171.382668 152.50557 
L 170.631381 150.140003 
L 170.126098 147.709976 
L 169.872124 145.241002 
L 169.872124 142.758998 
L 170.126098 140.290024 
L 170.631381 137.859997 
L 171.382668 135.49443 
L 207.71848 38.598933 
L 208.648444 36.443082 
L 209.782748 34.387388 
L 211.110736 32.451162 
L 212.619933 30.652594 
L 214.296161 29.008579 
L 216.123673 27.534562 
L 218.085301 26.244391 
L 220.162616 25.150185 
L 222.336104 24.262225 
L 224.585346 23.588851 
L 226.889213 23.136389 
L 229.226062 22.909091 
L 231.573938 22.909091 
L 233.910787 23.136389 
L 236.214654 23.588851 
L 238.463896 24.262225 
L 240.637384 25.150185 
L 242.714699 26.244391 
L 244.676327 27.534562 
L 246.503839 29.008579 
L 248.180067 30.652594 
L 249.689264 32.451162 
L 251.017252 34.387388 
L 252.151556 36.443082 
z
" clip-path="url(#p944b9c609b)" style="fill: #ff0000; opacity: 0.5; stroke: #ff0000; stroke-linejoin: miter"/>
   </g>
   <g id="patch_3">
    <path d="M 230.4 44.834339 
L 248.166648 57.60335 
L 267.293933 76.759448 
L 285.092297 94.584622 
L 299.877385 121.588363 
L 306.603673 144 
L 299.877385 166.411637 
L 285.092297 193.415378 
L 267.293933 211.240552 
L 248.166648 230.39665 
L 230.4 243.165661 
L 212.633352 230.39665 
L 193.506067 211.240552 
L 175.707703 193.415378 
L 160.922615 166.411637 
L 154.196327 144 
L 160.922615 121.588363 
L 175.707703 94.584622 
L 193.506067 76.759448 
L 212.633352 57.60335 
z
" clip-path="url(#p944b9c609b)" style="fill: #0000ff; opacity: 0.5; stroke: #0000ff; stroke-linejoin: miter"/>
   </g>
   <g id="line2d_1">
    <path d="M 106.686087 124.721128 
L 140.599511 124.721128 
L 141.027733 124.713545 
L 141.455955 124.690766 
L 141.884176 124.652705 
L 142.312398 124.599217 
L 142.74062 124.530095 
L 143.168841 124.445064 
L 143.597063 124.343781 
L 144.025284 124.22582 
L 144.453506 124.090669 
L 144.881728 123.937712 
L 145.309949 123.766219 
L 145.738171 123.575321 
L 146.166393 123.363988 
L 146.594614 123.130989 
L 147.022836 122.874853 
L 147.451058 122.593802 
L 147.879279 122.285669 
L 148.307501 121.947779 
L 148.735723 121.576776 
L 149.163944 121.168364 
L 221.835567 48.387273 
L 222.263789 47.978842 
L 222.69201 47.607822 
L 223.120232 47.269917 
L 223.548454 46.961769 
L 223.976675 46.680705 
L 224.404897 46.424556 
L 224.833119 46.191547 
L 225.26134 45.980203 
L 225.689562 45.789296 
L 226.117784 45.617795 
L 226.546005 45.46483 
L 226.974227 45.329672 
L 227.402448 45.211705 
L 227.83067 45.110417 
L 228.258892 45.025383 
L 228.687113 44.956257 
L 229.115335 44.902766 
L 229.543557 44.864704 
L 229.971778 44.841923 
L 230.4 44.834339 
L 230.828222 44.841923 
L 231.256443 44.864704 
L 231.684665 44.902766 
L 232.112887 44.956257 
L 232.541108 45.025383 
L 232.96933 45.110417 
L 233.397552 45.211705 
L 233.825773 45.329672 
L 234.253995 45.46483 
L 234.682216 45.617795 
L 235.110438 45.789296 
L 235.53866 45.980203 
L 235.966881 46.191547 
L 236.395103 46.424556 
L 236.823325 46.680705 
L 237.251546 46.961769 
L 237.679768 47.269917 
L 238.10799 47.607822 
L 238.536211 47.978842 
L 238.964433 48.387273 
L 311.636056 121.168364 
L 312.064277 121.576776 
L 312.492499 121.947779 
L 312.920721 122.285669 
L 313.348942 122.593802 
L 313.777164 122.874853 
L 314.205386 123.130989 
L 314.633607 123.363988 
L 315.061829 123.575321 
L 315.490051 123.766219 
L 315.918272 123.937712 
L 316.346494 124.090669 
L 316.774716 124.22582 
L 317.202937 124.343781 
L 317.631159 124.445064 
L 318.05938 124.530095 
L 318.487602 124.599217 
L 318.915824 124.652705 
L 319.344045 124.690766 
L 319.772267 124.713545 
L 320.200489 124.721128 
L 354.113913 124.721128 
" clip-path="url(#p944b9c609b)" style="fill: none; stroke: #000000; stroke-width: 1.5; stroke-linecap: square"/>
   </g>
   <g id="line2d_2">
    <path d="M 106.686087 163.278872 
L 140.599511 163.278872 
L 141.027733 163.286455 
L 141.455955 163.309234 
L 141.884176 163.347295 
L 142.312398 163.400783 
L 142.74062 163.469905 
L 143.168841 163.554936 
L 143.597063 163.656219 
L 144.025284 163.77418 
L 144.453506 163.909331 
L 144.881728 164.062288 
L 145.309949 164.233781 
L 145.738171 164.424679 
L 146.166393 164.636012 
L 146.594614 164.869011 
L 147.022836 165.125147 
L 147.451058 165.406198 
L 147.879279 165.714331 
L 148.307501 166.052221 
L 148.735723 166.423224 
L 149.163944 166.831636 
L 221.835567 239.612727 
L 222.263789 240.021158 
L 222.69201 240.392178 
L 223.120232 240.730083 
L 223.548454 241.038231 
L 223.976675 241.319295 
L 224.404897 241.575444 
L 224.833119 241.808453 
L 225.26134 242.019797 
L 225.689562 242.210704 
L 226.117784 242.382205 
L 226.546005 242.53517 
L 226.974227 242.670328 
L 227.402448 242.788295 
L 227.83067 242.889583 
L 228.258892 242.974617 
L 228.687113 243.043743 
L 229.115335 243.097234 
L 229.543557 243.135296 
L 229.971778 243.158077 
L 230.4 243.165661 
L 230.828222 243.158077 
L 231.256443 243.135296 
L 231.684665 243.097234 
L 232.112887 243.043743 
L 232.541108 242.974617 
L 232.96933 242.889583 
L 233.397552 242.788295 
L 233.825773 242.670328 
L 234.253995 242.53517 
L 234.682216 242.382205 
L 235.110438 242.210704 
L 235.53866 242.019797 
L 235.966881 241.808453 
L 236.395103 241.575444 
L 236.823325 241.319295 
L 237.251546 241.038231 
L 237.679768 240.730083 
L 238.10799 240.392178 
L 238.536211 240.021158 
L 238.964433 239.612727 
L 311.636056 166.831636 
L 312.064277 166.423224 
L 312.492499 166.052221 
L 312.920721 165.714331 
L 313.348942 165.406198 
L 313.777164 165.125147 
L 314.205386 164.869011 
L 314.633607 164.636012 
L 315.061829 164.424679 
L 315.490051 164.233781 
L 315.918272 164.062288 
L 316.346494 163.909331 
L 316.774716 163.77418 
L 317.202937 163.656219 
L 317.631159 163.554936 
L 318.05938 163.469905 
L 318.487602 163.400783 
L 318.915824 163.347295 
L 319.344045 163.309234 
L 319.772267 163.286455 
L 320.200489 163.278872 
L 354.113913 163.278872 
" clip-path="url(#p944b9c609b)" style="fill: none; stroke: #000000; stroke-width: 1.5; stroke-linecap: square"/>
   </g>
   <g id="line2d_3">
    <path d="M 230.4 277.2 
L 230.4 10.8 
" clip-path="url(#p944b9c609b)" style="fill: none; stroke-dasharray: 9.6,2.4,1.5,2.4; stroke-dashoffset: 0; stroke: #000000; stroke-width: 1.5"/>
   </g>
   <g id="line2d_4">
    <path d="M 94.314696 144 
L 366.485304 144 
" clip-path="url(#p944b9c609b)" style="fill: none; stroke-dasharray: 9.6,2.4,1.5,2.4; stroke-dashoffset: 0; stroke: #000000; stroke-width: 1.5"/>
   </g>
   <g id="LineCollection_1">
    <path d="M 230.4 144 
L 230.4 22.909091 
" clip-path="url(#p944b9c609b)" style="fill: none; stroke: #ff0000; stroke-width: 1.5"/>
    <path d="M 216.949361 144 
L 216.949361 26.991504 
" clip-path="url(#p944b9c609b)" style="fill: none; stroke: #ff0000; stroke-width: 1.5"/>
    <path d="M 203.498722 144 
L 203.498722 49.851621 
" clip-path="url(#p944b9c609b)" style="fill: none; stroke: #ff0000; stroke-width: 1.5"/>
    <path d="M 190.048082 144 
L 190.048082 85.719992 
" clip-path="url(#p944b9c609b)" style="fill: none; stroke: #ff0000; stroke-width: 1.5"/>
    <path d="M 176.597443 144 
L 176.597443 121.588363 
" clip-path="url(#p944b9c609b)" style="fill: none; stroke: #ff0000; stroke-width: 1.5"/>
   </g>
   <g id="line2d_5">
    <defs>
     <path id="ma3dcabbf3c" d="M 3 0 
L -3 -0 
" style="stroke: #ff0000"/>
    </defs>
    <g clip-path="url(#p944b9c609b)">
     <use xlink:href="#ma3dcabbf3c" x="230.4" y="22.909091" style="fill: #ff0000; stroke: #ff0000"/>
     <use xlink:href="#ma3dcabbf3c" x="216.949361" y="26.991504" style="fill: #ff0000; stroke: #ff0000"/>
     <use xlink:href="#ma3dcabbf3c" x="203.498722" y="49.851621" style="fill: #ff0000; stroke: #ff0000"/>
     <use xlink:href="#ma3dcabbf3c" x="190.048082" y="85.719992" style="fill: #ff0000; stroke: #ff0000"/>
     <use xlink:href="#ma3dcabbf3c" x="176.597443" y="121.588363" style="fill: #ff0000; stroke: #ff0000"/>
    </g>
   </g>
   <g id="line2d_6">
    <path d="M 176.597443 144 
L 230.4 144 
" clip-path="url(#p944b9c609b)" style="fill: none; stroke: #000000; stroke-width: 1.5; stroke-linecap: square"/>
   </g>
   <g id="LineCollection_2">
    <path d="M 230.4 144 
L 230.4 44.834339 
" clip-path="url(#p944b9c609b)" style="fill: none; stroke: #0000ff; stroke-width: 1.5"/>
    <path d="M 248.166648 144 
L 248.166648 57.60335 
" clip-path="url(#p944b9c609b)" style="fill: none; stroke: #0000ff; stroke-width: 1.5"/>
    <path d="M 267.293933 144 
L 267.293933 76.759448 
" clip-path="url(#p944b9c609b)" style="fill: none; stroke: #0000ff; stroke-width: 1.5"/>
    <path d="M 285.092781 144 
L 285.092781 94.585107 
" clip-path="url(#p944b9c609b)" style="fill: none; stroke: #0000ff; stroke-width: 1.5"/>
    <path d="M 299.878353 144 
L 299.878353 121.588363 
" clip-path="url(#p944b9c609b)" style="fill: none; stroke: #0000ff; stroke-width: 1.5"/>
   </g>
   <g id="line2d_7">
    <defs>
     <path id="mbfd23f2483" d="M 3 0 
L -3 -0 
" style="stroke: #0000ff"/>
    </defs>
    <g clip-path="url(#p944b9c609b)">
     <use xlink:href="#mbfd23f2483" x="230.4" y="44.834339" style="fill: #0000ff; stroke: #0000ff"/>
     <use xlink:href="#mbfd23f2483" x="248.166648" y="57.60335" style="fill: #0000ff; stroke: #0000ff"/>
     <use xlink:href="#mbfd23f2483" x="267.293933" y="76.759448" style="fill: #0000ff; stroke: #0000ff"/>
     <use xlink:href="#mbfd23f2483" x="285.092781" y="94.585107" style="fill: #0000ff; stroke: #0000ff"/>
     <use xlink:href="#mbfd23f2483" x="299.878353" y="121.588363" style="fill: #0000ff; stroke: #0000ff"/>
    </g>
   </g>
   <g id="line2d_8">
    <path d="M 230.4 144 
L 299.878353 144 
" clip-path="url(#p944b9c609b)" style="fill: none; stroke: #000000; stroke-width: 1.5; stroke-linecap: square"/>
   </g>
   <g id="legend_1">
    <g id="patch_4">
     <path d="M 101.314696 272.2 
L 189.011571 272.2 
Q 191.011571 272.2 191.011571 270.2 
L 191.011571 197.809375 
Q 191.011571 195.809375 189.011571 195.809375 
L 101.314696 195.809375 
Q 99.314696 195.809375 99.314696 197.809375 
L 99.314696 270.2 
Q 99.314696 272.2 101.314696 272.2 
z
" style="fill: #ffffff; opacity: 0.8; stroke: #cccccc; stroke-linejoin: miter"/>
    </g>
    <g id="line2d_9">
     <path d="M 103.314696 203.907813 
L 113.314696 203.907813 
L 123.314696 203.907813 
" style="fill: none; stroke: #000000; stroke-width: 1.5; stroke-linecap: square"/>
    </g>
    <g id="text_1">
     <!-- roll surface -->
     <g transform="translate(131.314696 207.407813) scale(0.1 -0.1)">
      <defs>
       <path id="DejaVuSans-72" d="M 2631 2963 
Q 2534 3019 2420 3045 
Q 2306 3072 2169 3072 
Q 1681 3072 1420 2755 
Q 1159 2438 1159 1844 
L 1159 0 
L 581 0 
L 581 3500 
L 1159 3500 
L 1159 2956 
Q 1341 3275 1631 3429 
Q 1922 3584 2338 3584 
Q 2397 3584 2469 3576 
Q 2541 3569 2628 3553 
L 2631 2963 
z
" transform="scale(0.015625)"/>
       <path id="DejaVuSans-6f" d="M 1959 3097 
Q 1497 3097 1228 2736 
Q 959 2375 959 1747 
Q 959 1119 1226 758 
Q 1494 397 1959 397 
Q 2419 397 2687 759 
Q 2956 1122 2956 1747 
Q 2956 2369 2687 2733 
Q 2419 3097 1959 3097 
z
M 1959 3584 
Q 2709 3584 3137 3096 
Q 3566 2609 3566 1747 
Q 3566 888 3137 398 
Q 2709 -91 1959 -91 
Q 1206 -91 779 398 
Q 353 888 353 1747 
Q 353 2609 779 3096 
Q 1206 3584 1959 3584 
z
" transform="scale(0.015625)"/>
       <path id="DejaVuSans-6c" d="M 603 4863 
L 1178 4863 
L 1178 0 
L 603 0 
L 603 4863 
z
" transform="scale(0.015625)"/>
       <path id="DejaVuSans-20" transform="scale(0.015625)"/>
       <path id="DejaVuSans-73" d="M 2834 3397 
L 2834 2853 
Q 2591 2978 2328 3040 
Q 2066 3103 1784 3103 
Q 1356 3103 1142 2972 
Q 928 2841 928 2578 
Q 928 2378 1081 2264 
Q 1234 2150 1697 2047 
L 1894 2003 
Q 2506 1872 2764 1633 
Q 3022 1394 3022 966 
Q 3022 478 2636 193 
Q 2250 -91 1575 -91 
Q 1294 -91 989 -36 
Q 684 19 347 128 
L 347 722 
Q 666 556 975 473 
Q 1284 391 1588 391 
Q 1994 391 2212 530 
Q 2431 669 2431 922 
Q 2431 1156 2273 1281 
Q 2116 1406 1581 1522 
L 1381 1569 
Q 847 1681 609 1914 
Q 372 2147 372 2553 
Q 372 3047 722 3315 
Q 1072 3584 1716 3584 
Q 2034 3584 2315 3537 
Q 2597 3491 2834 3397 
z
" transform="scale(0.015625)"/>
       <path id="DejaVuSans-75" d="M 544 1381 
L 544 3500 
L 1119 3500 
L 1119 1403 
Q 1119 906 1312 657 
Q 1506 409 1894 409 
Q 2359 409 2629 706 
Q 2900 1003 2900 1516 
L 2900 3500 
L 3475 3500 
L 3475 0 
L 2900 0 
L 2900 538 
Q 2691 219 2414 64 
Q 2138 -91 1772 -91 
Q 1169 -91 856 284 
Q 544 659 544 1381 
z
M 1991 3584 
L 1991 3584 
z
" transform="scale(0.015625)"/>
       <path id="DejaVuSans-66" d="M 2375 4863 
L 2375 4384 
L 1825 4384 
Q 1516 4384 1395 4259 
Q 1275 4134 1275 3809 
L 1275 3500 
L 2222 3500 
L 2222 3053 
L 1275 3053 
L 1275 0 
L 697 0 
L 697 3053 
L 147 3053 
L 147 3500 
L 697 3500 
L 697 3744 
Q 697 4328 969 4595 
Q 1241 4863 1831 4863 
L 2375 4863 
z
" transform="scale(0.015625)"/>
       <path id="DejaVuSans-61" d="M 2194 1759 
Q 1497 1759 1228 1600 
Q 959 1441 959 1056 
Q 959 750 1161 570 
Q 1363 391 1709 391 
Q 2188 391 2477 730 
Q 2766 1069 2766 1631 
L 2766 1759 
L 2194 1759 
z
M 3341 1997 
L 3341 0 
L 2766 0 
L 2766 531 
Q 2569 213 2275 61 
Q 1981 -91 1556 -91 
Q 1019 -91 701 211 
Q 384 513 384 1019 
Q 384 1609 779 1909 
Q 1175 2209 1959 2209 
L 2766 2209 
L 2766 2266 
Q 2766 2663 2505 2880 
Q 2244 3097 1772 3097 
Q 1472 3097 1187 3025 
Q 903 2953 641 2809 
L 641 3341 
Q 956 3463 1253 3523 
Q 1550 3584 1831 3584 
Q 2591 3584 2966 3190 
Q 3341 2797 3341 1997 
z
" transform="scale(0.015625)"/>
       <path id="DejaVuSans-63" d="M 3122 3366 
L 3122 2828 
Q 2878 2963 2633 3030 
Q 2388 3097 2138 3097 
Q 1578 3097 1268 2742 
Q 959 2388 959 1747 
Q 959 1106 1268 751 
Q 1578 397 2138 397 
Q 2388 397 2633 464 
Q 2878 531 3122 666 
L 3122 134 
Q 2881 22 2623 -34 
Q 2366 -91 2075 -91 
Q 1284 -91 818 406 
Q 353 903 353 1747 
Q 353 2603 823 3093 
Q 1294 3584 2113 3584 
Q 2378 3584 2631 3529 
Q 2884 3475 3122 3366 
z
" transform="scale(0.015625)"/>
       <path id="DejaVuSans-65" d="M 3597 1894 
L 3597 1613 
L 953 1613 
Q 991 1019 1311 708 
Q 1631 397 2203 397 
Q 2534 397 2845 478 
Q 3156 559 3463 722 
L 3463 178 
Q 3153 47 2828 -22 
Q 2503 -91 2169 -91 
Q 1331 -91 842 396 
Q 353 884 353 1716 
Q 353 2575 817 3079 
Q 1281 3584 2069 3584 
Q 2775 3584 3186 3129 
Q 3597 2675 3597 1894 
z
M 3022 2063 
Q 3016 2534 2758 2815 
Q 2500 3097 2075 3097 
Q 1594 3097 1305 2825 
Q 1016 2553 972 2059 
L 3022 2063 
z
" transform="scale(0.015625)"/>
      </defs>
      <use xlink:href="#DejaVuSans-72"/>
      <use xlink:href="#DejaVuSans-6f" x="38.863281"/>
      <use xlink:href="#DejaVuSans-6c" x="100.044922"/>
      <use xlink:href="#DejaVuSans-6c" x="127.828125"/>
      <use xlink:href="#DejaVuSans-20" x="155.611328"/>
      <use xlink:href="#DejaVuSans-73" x="187.398438"/>
      <use xlink:href="#DejaVuSans-75" x="239.498047"/>
      <use xlink:href="#DejaVuSans-72" x="302.876953"/>
      <use xlink:href="#DejaVuSans-66" x="343.990234"/>
      <use xlink:href="#DejaVuSans-61" x="379.195312"/>
      <use xlink:href="#DejaVuSans-63" x="440.474609"/>
      <use xlink:href="#DejaVuSans-65" x="495.455078"/>
     </g>
    </g>
    <g id="patch_5">
     <path d="M 103.314696 222.085938 
L 123.314696 222.085938 
L 123.314696 215.085938 
L 103.314696 215.085938 
z
" style="fill: #ff0000; opacity: 0.5; stroke: #ff0000; stroke-linejoin: miter"/>
    </g>
    <g id="text_2">
     <!-- in profile -->
     <g transform="translate(131.314696 222.085938) scale(0.1 -0.1)">
      <defs>
       <path id="DejaVuSans-69" d="M 603 3500 
L 1178 3500 
L 1178 0 
L 603 0 
L 603 3500 
z
M 603 4863 
L 1178 4863 
L 1178 4134 
L 603 4134 
L 603 4863 
z
" transform="scale(0.015625)"/>
       <path id="DejaVuSans-6e" d="M 3513 2113 
L 3513 0 
L 2938 0 
L 2938 2094 
Q 2938 2591 2744 2837 
Q 2550 3084 2163 3084 
Q 1697 3084 1428 2787 
Q 1159 2491 1159 1978 
L 1159 0 
L 581 0 
L 581 3500 
L 1159 3500 
L 1159 2956 
Q 1366 3272 1645 3428 
Q 1925 3584 2291 3584 
Q 2894 3584 3203 3211 
Q 3513 2838 3513 2113 
z
" transform="scale(0.015625)"/>
       <path id="DejaVuSans-70" d="M 1159 525 
L 1159 -1331 
L 581 -1331 
L 581 3500 
L 1159 3500 
L 1159 2969 
Q 1341 3281 1617 3432 
Q 1894 3584 2278 3584 
Q 2916 3584 3314 3078 
Q 3713 2572 3713 1747 
Q 3713 922 3314 415 
Q 2916 -91 2278 -91 
Q 1894 -91 1617 61 
Q 1341 213 1159 525 
z
M 3116 1747 
Q 3116 2381 2855 2742 
Q 2594 3103 2138 3103 
Q 1681 3103 1420 2742 
Q 1159 2381 1159 1747 
Q 1159 1113 1420 752 
Q 1681 391 2138 391 
Q 2594 391 2855 752 
Q 3116 1113 3116 1747 
z
" transform="scale(0.015625)"/>
      </defs>
      <use xlink:href="#DejaVuSans-69"/>
      <use xlink:href="#DejaVuSans-6e" x="27.783203"/>
      <use xlink:href="#DejaVuSans-20" x="91.162109"/>
      <use xlink:href="#DejaVuSans-70" x="122.949219"/>
      <use xlink:href="#DejaVuSans-72" x="186.425781"/>
      <use xlink:href="#DejaVuSans-6f" x="225.289062"/>
      <use xlink:href="#DejaVuSans-66" x="286.470703"/>
      <use xlink:href="#DejaVuSans-69" x="321.675781"/>
      <use xlink:href="#DejaVuSans-6c" x="349.458984"/>
      <use xlink:href="#DejaVuSans-65" x="377.242188"/>
     </g>
    </g>
    <g id="patch_6">
     <path d="M 103.314696 236.764063 
L 123.314696 236.764063 
L 123.314696 229.764063 
L 103.314696 229.764063 
z
" style="fill: #0000ff; opacity: 0.5; stroke: #0000ff; stroke-linejoin: miter"/>
    </g>
    <g id="text_3">
     <!-- out profile -->
     <g transform="translate(131.314696 236.764063) scale(0.1 -0.1)">
      <defs>
       <path id="DejaVuSans-74" d="M 1172 4494 
L 1172 3500 
L 2356 3500 
L 2356 3053 
L 1172 3053 
L 1172 1153 
Q 1172 725 1289 603 
Q 1406 481 1766 481 
L 2356 481 
L 2356 0 
L 1766 0 
Q 1100 0 847 248 
Q 594 497 594 1153 
L 594 3053 
L 172 3053 
L 172 3500 
L 594 3500 
L 594 4494 
L 1172 4494 
z
" transform="scale(0.015625)"/>
      </defs>
      <use xlink:href="#DejaVuSans-6f"/>
      <use xlink:href="#DejaVuSans-75" x="61.181641"/>
      <use xlink:href="#DejaVuSans-74" x="124.560547"/>
      <use xlink:href="#DejaVuSans-20" x="163.769531"/>
      <use xlink:href="#DejaVuSans-70" x="195.556641"/>
      <use xlink:href="#DejaVuSans-72" x="259.033203"/>
      <use xlink:href="#DejaVuSans-6f" x="297.896484"/>
      <use xlink:href="#DejaVuSans-66" x="359.078125"/>
      <use xlink:href="#DejaVuSans-69" x="394.283203"/>
      <use xlink:href="#DejaVuSans-6c" x="422.066406"/>
      <use xlink:href="#DejaVuSans-65" x="449.849609"/>
     </g>
    </g>
    <g id="line2d_10">
     <path d="M 113.314696 251.442188 
L 113.314696 246.629688 
" style="fill: none; stroke: #ff0000; stroke-width: 1.5"/>
    </g>
    <g id="line2d_11">
     <path d="M 103.314696 251.442188 
L 123.314696 251.442188 
" style="fill: none; stroke: #000000; stroke-width: 1.5; stroke-linecap: square"/>
    </g>
    <g id="line2d_12">
     <g>
      <use xlink:href="#ma3dcabbf3c" x="113.314696" y="246.629688" style="fill: #ff0000; stroke: #ff0000"/>
     </g>
    </g>
    <g id="text_4">
     <!-- in pillars -->
     <g transform="translate(131.314696 251.442188) scale(0.1 -0.1)">
      <use xlink:href="#DejaVuSans-69"/>
      <use xlink:href="#DejaVuSans-6e" x="27.783203"/>
      <use xlink:href="#DejaVuSans-20" x="91.162109"/>
      <use xlink:href="#DejaVuSans-70" x="122.949219"/>
      <use xlink:href="#DejaVuSans-69" x="186.425781"/>
      <use xlink:href="#DejaVuSans-6c" x="214.208984"/>
      <use xlink:href="#DejaVuSans-6c" x="241.992188"/>
      <use xlink:href="#DejaVuSans-61" x="269.775391"/>
      <use xlink:href="#DejaVuSans-72" x="331.054688"/>
      <use xlink:href="#DejaVuSans-73" x="372.167969"/>
     </g>
    </g>
    <g id="line2d_13">
     <path d="M 113.314696 266.120313 
L 113.314696 261.307813 
" style="fill: none; stroke: #0000ff; stroke-width: 1.5"/>
    </g>
    <g id="line2d_14">
     <path d="M 103.314696 266.120313 
L 123.314696 266.120313 
" style="fill: none; stroke: #000000; stroke-width: 1.5; stroke-linecap: square"/>
    </g>
    <g id="line2d_15">
     <g>
      <use xlink:href="#mbfd23f2483" x="113.314696" y="261.307813" style="fill: #0000ff; stroke: #0000ff"/>
     </g>
    </g>
    <g id="text_5">
     <!-- out pillars -->
     <g transform="translate(131.314696 266.120313) scale(0.1 -0.1)">
      <use xlink:href="#DejaVuSans-6f"/>
      <use xlink:href="#DejaVuSans-75" x="61.181641"/>
      <use xlink:href="#DejaVuSans-74" x="124.560547"/>
      <use xlink:href="#DejaVuSans-20" x="163.769531"/>
      <use xlink:href="#DejaVuSans-70" x="195.556641"/>
      <use xlink:href="#DejaVuSans-69" x="259.033203"/>
      <use xlink:href="#DejaVuSans-6c" x="286.816406"/>
      <use xlink:href="#DejaVuSans-6c" x="314.599609"/>
      <use xlink:href="#DejaVuSans-61" x="342.382812"/>
      <use xlink:href="#DejaVuSans-72" x="403.662109"/>
      <use xlink:href="#DejaVuSans-73" x="444.775391"/>
     </g>
    </g>
   </g>
  </g>
 </g>
 <defs>
  <clipPath id="p944b9c609b">
   <rect x="94.314696" y="10.8" width="272.170608" height="266.4"/>
  </clipPath>
 </defs>
</svg>
