<?xml version="1.0" encoding="utf-8" standalone="no"?>
<!DOCTYPE svg PUBLIC "-//W3C//DTD SVG 1.1//EN"
  "http://www.w3.org/Graphics/SVG/1.1/DTD/svg11.dtd">
<svg xmlns:xlink="http://www.w3.org/1999/xlink" width="460.8pt" height="252pt" viewBox="0 0 460.8 252" xmlns="http://www.w3.org/2000/svg" version="1.1">
 <metadata>
  <rdf:RDF xmlns:dc="http://purl.org/dc/elements/1.1/" xmlns:cc="http://creativecommons.org/ns#" xmlns:rdf="http://www.w3.org/1999/02/22-rdf-syntax-ns#">
   <cc:Work>
    <dc:type rdf:resource="http://purl.org/dc/dcmitype/StillImage"/>
    <dc:date>2023-05-31T14:48:29.545371</dc:date>
    <dc:format>image/svg+xml</dc:format>
    <dc:creator>
     <cc:Agent>
      <dc:title>Matplotlib v3.7.1, https://matplotlib.org/</dc:title>
     </cc:Agent>
    </dc:creator>
   </cc:Work>
  </rdf:RDF>
 </metadata>
 <defs>
  <style type="text/css">*{stroke-linejoin: round; stroke-linecap: butt}</style>
 </defs>
 <g id="figure_1">
  <g id="patch_1">
   <path d="M 0 252 
L 460.8 252 
L 460.8 0 
L 0 0 
z
" style="fill: #ffffff"/>
  </g>
  <g id="axes_1">
   <g id="patch_2">
    <path d="M 230.4 225.789201 
L 230.4 26.210799 
L 228.354024 26.210799 
L 224.283552 26.629514 
L 220.277292 27.462548 
L 216.377303 28.701156 
L 208.218182 31.760826 
L 208.218182 220.239174 
L 216.377303 223.298844 
L 220.277292 224.537452 
L 224.283552 225.370486 
L 228.354024 225.789201 
L 230.4 225.789201 
L 230.4 225.789201 
L 230.4 26.210799 
L 232.445976 26.210799 
L 236.516448 26.629514 
L 240.522708 27.462548 
L 244.422697 28.701156 
L 252.581818 31.760826 
L 252.581818 220.239174 
L 244.422697 223.298844 
L 240.522708 224.537452 
L 236.516448 225.370486 
L 232.445976 225.789201 
z
" clip-path="url(#p5fab68d6cf)" style="fill: #1f77b4; opacity: 0.5"/>
   </g>
   <g id="patch_3">
    <path d="M 208.218182 220.239174 
L 208.218182 31.760826 
L 163.854545 48.39719 
L 163.854545 203.60281 
L 208.218182 220.239174 
L 252.581818 220.239174 
L 252.581818 31.760826 
L 296.945455 48.39719 
L 296.945455 203.60281 
L 252.581818 220.239174 
z
" clip-path="url(#p5fab68d6cf)" style="fill: #ff7f0e; opacity: 0.5"/>
   </g>
   <g id="patch_4">
    <path d="M 163.854545 203.60281 
L 163.854545 48.39719 
L 119.490909 65.033554 
L 119.490909 186.966446 
L 163.854545 203.60281 
L 296.945455 203.60281 
L 296.945455 48.39719 
L 341.309091 65.033554 
L 341.309091 186.966446 
L 296.945455 203.60281 
z
" clip-path="url(#p5fab68d6cf)" style="fill: #2ca02c; opacity: 0.5"/>
   </g>
   <g id="patch_5">
    <path d="M 119.490909 186.966446 
L 119.490909 65.033554 
L 75.127273 81.669917 
L 75.127273 170.330083 
L 119.490909 186.966446 
L 341.309091 186.966446 
L 341.309091 65.033554 
L 385.672727 81.669917 
L 385.672727 170.330083 
L 341.309091 186.966446 
z
" clip-path="url(#p5fab68d6cf)" style="fill: #d62728; opacity: 0.5"/>
   </g>
   <g id="patch_6">
    <path d="M 75.127273 170.330083 
L 75.127273 81.669917 
L 56.630673 88.606142 
L 53.076433 90.139326 
L 49.687315 92.009395 
L 46.495159 94.198782 
L 43.529951 96.686917 
L 40.819549 99.450428 
L 38.389413 102.463353 
L 36.262374 105.697388 
L 34.458414 109.122151 
L 32.994479 112.705469 
L 31.884321 116.413679 
L 31.138372 120.211946 
L 30.763636 124.064588 
L 30.763636 127.935412 
L 31.138372 131.788054 
L 31.884321 135.586321 
L 32.994479 139.294531 
L 34.458414 142.877849 
L 36.262374 146.302612 
L 38.389413 149.536647 
L 40.819549 152.549572 
L 43.529951 155.313083 
L 46.495159 157.801218 
L 49.687315 159.990605 
L 53.076433 161.860674 
L 56.630673 163.393858 
L 75.127273 170.330083 
L 385.672727 170.330083 
L 385.672727 81.669917 
L 404.169327 88.606142 
L 407.723567 90.139326 
L 411.112685 92.009395 
L 414.304841 94.198782 
L 417.270049 96.686917 
L 419.980451 99.450428 
L 422.410587 102.463353 
L 424.537626 105.697388 
L 426.341586 109.122151 
L 427.805521 112.705469 
L 428.915679 116.413679 
L 429.661628 120.211946 
L 430.036364 124.064588 
L 430.036364 127.935412 
L 429.661628 131.788054 
L 428.915679 135.586321 
L 427.805521 139.294531 
L 426.341586 142.877849 
L 424.537626 146.302612 
L 422.410587 149.536647 
L 419.980451 152.549572 
L 417.270049 155.313083 
L 414.304841 157.801218 
L 411.112685 159.990605 
L 407.723567 161.860674 
L 404.169327 163.393858 
L 385.672727 170.330083 
z
" clip-path="url(#p5fab68d6cf)" style="fill: #9467bd; opacity: 0.5"/>
   </g>
   <g id="patch_7">
    <path clip-path="url(#p5fab68d6cf)" style="fill: #808080; opacity: 0.5; stroke: #808080; stroke-linejoin: miter"/>
   </g>
   <g id="line2d_1">
    <path d="M 404.169327 163.393858 
L 244.422697 223.298844 
L 240.522708 224.537452 
L 236.516448 225.370486 
L 232.445976 225.789201 
L 228.354024 225.789201 
L 224.283552 225.370486 
L 220.277292 224.537452 
L 216.377303 223.298844 
L 56.630673 163.393858 
L 53.076433 161.860674 
L 49.687315 159.990605 
L 46.495159 157.801218 
L 43.529951 155.313083 
L 40.819549 152.549572 
L 38.389413 149.536647 
L 36.262374 146.302612 
L 34.458414 142.877849 
L 32.994479 139.294531 
L 31.884321 135.586321 
L 31.138372 131.788054 
L 30.763636 127.935412 
L 30.763636 124.064588 
L 31.138372 120.211946 
L 31.884321 116.413679 
L 32.994479 112.705469 
L 34.458414 109.122151 
L 36.262374 105.697388 
L 38.389413 102.463353 
L 40.819549 99.450428 
L 43.529951 96.686917 
L 46.495159 94.198782 
L 49.687315 92.009395 
L 53.076433 90.139326 
L 56.630673 88.606142 
L 216.377303 28.701156 
L 220.277292 27.462548 
L 224.283552 26.629514 
L 228.354024 26.210799 
L 232.445976 26.210799 
L 236.516448 26.629514 
L 240.522708 27.462548 
L 244.422697 28.701156 
L 404.169327 88.606142 
L 407.723567 90.139326 
L 411.112685 92.009395 
L 414.304841 94.198782 
L 417.270049 96.686917 
L 419.980451 99.450428 
L 422.410587 102.463353 
L 424.537626 105.697388 
L 426.341586 109.122151 
L 427.805521 112.705469 
L 428.915679 116.413679 
L 429.661628 120.211946 
L 430.036364 124.064588 
L 430.036364 127.935412 
L 429.661628 131.788054 
L 428.915679 135.586321 
L 427.805521 139.294531 
L 426.341586 142.877849 
L 424.537626 146.302612 
L 422.410587 149.536647 
L 419.980451 152.549572 
L 417.270049 155.313083 
L 414.304841 157.801218 
L 411.112685 159.990605 
L 407.723567 161.860674 
L 404.169327 163.393858 
" clip-path="url(#p5fab68d6cf)" style="fill: none; stroke: #000000; stroke-width: 1.5; stroke-linecap: square"/>
   </g>
   <g id="line2d_2">
    <path d="M 230.4 235.768122 
L 230.4 16.231878 
" clip-path="url(#p5fab68d6cf)" style="fill: none; stroke-dasharray: 9.6,2.4,1.5,2.4; stroke-dashoffset: 0; stroke: #000000; stroke-width: 1.5"/>
   </g>
   <g id="line2d_3">
    <path d="M 10.8 126 
L 450 126 
" clip-path="url(#p5fab68d6cf)" style="fill: none; stroke-dasharray: 9.6,2.4,1.5,2.4; stroke-dashoffset: 0; stroke: #000000; stroke-width: 1.5"/>
   </g>
   <g id="LineCollection_1">
    <path d="M 230.4 126 
L 230.4 26.210799 
" clip-path="url(#p5fab68d6cf)" style="fill: none; stroke: #ff0000; stroke-width: 1.5"/>
    <path d="M 274.763636 126 
L 274.763636 40.079008 
" clip-path="url(#p5fab68d6cf)" style="fill: none; stroke: #ff0000; stroke-width: 1.5"/>
    <path d="M 319.127273 126 
L 319.127273 56.715372 
" clip-path="url(#p5fab68d6cf)" style="fill: none; stroke: #ff0000; stroke-width: 1.5"/>
    <path d="M 363.490909 126 
L 363.490909 73.351735 
" clip-path="url(#p5fab68d6cf)" style="fill: none; stroke: #ff0000; stroke-width: 1.5"/>
    <path d="M 407.854545 126 
L 407.854545 90.211598 
" clip-path="url(#p5fab68d6cf)" style="fill: none; stroke: #ff0000; stroke-width: 1.5"/>
   </g>
   <g id="line2d_4">
    <defs>
     <path id="md15f20a629" d="M 3 0 
L -3 -0 
" style="stroke: #ff0000"/>
    </defs>
    <g clip-path="url(#p5fab68d6cf)">
     <use xlink:href="#md15f20a629" x="230.4" y="26.210799" style="fill: #ff0000; stroke: #ff0000"/>
     <use xlink:href="#md15f20a629" x="274.763636" y="40.079008" style="fill: #ff0000; stroke: #ff0000"/>
     <use xlink:href="#md15f20a629" x="319.127273" y="56.715372" style="fill: #ff0000; stroke: #ff0000"/>
     <use xlink:href="#md15f20a629" x="363.490909" y="73.351735" style="fill: #ff0000; stroke: #ff0000"/>
     <use xlink:href="#md15f20a629" x="407.854545" y="90.211598" style="fill: #ff0000; stroke: #ff0000"/>
    </g>
   </g>
   <g id="line2d_5">
    <path d="M 230.4 126 
L 407.854545 126 
" clip-path="url(#p5fab68d6cf)" style="fill: none; stroke: #ff0000; stroke-width: 1.5; stroke-linecap: square"/>
   </g>
   <g id="legend_1">
    <g id="patch_8">
     <path d="M 323.873437 53.588128 
L 443 53.588128 
Q 445 53.588128 445 51.588128 
L 445 23.231878 
Q 445 21.231878 443 21.231878 
L 323.873437 21.231878 
Q 321.873437 21.231878 321.873437 23.231878 
L 321.873437 51.588128 
Q 321.873437 53.588128 323.873437 53.588128 
z
" style="fill: #ffffff; opacity: 0.8; stroke: #cccccc; stroke-linejoin: miter"/>
    </g>
    <g id="patch_9">
     <path d="M 325.873437 32.830316 
L 345.873437 32.830316 
L 345.873437 25.830316 
L 325.873437 25.830316 
z
" style="fill: #808080; opacity: 0.5; stroke: #808080; stroke-linejoin: miter"/>
    </g>
    <g id="text_1">
     <!-- pillar sections -->
     <g transform="translate(353.873437 32.830316) scale(0.1 -0.1)">
      <defs>
       <path id="DejaVuSans-70" d="M 1159 525 
L 1159 -1331 
L 581 -1331 
L 581 3500 
L 1159 3500 
L 1159 2969 
Q 1341 3281 1617 3432 
Q 1894 3584 2278 3584 
Q 2916 3584 3314 3078 
Q 3713 2572 3713 1747 
Q 3713 922 3314 415 
Q 2916 -91 2278 -91 
Q 1894 -91 1617 61 
Q 1341 213 1159 525 
z
M 3116 1747 
Q 3116 2381 2855 2742 
Q 2594 3103 2138 3103 
Q 1681 3103 1420 2742 
Q 1159 2381 1159 1747 
Q 1159 1113 1420 752 
Q 1681 391 2138 391 
Q 2594 391 2855 752 
Q 3116 1113 3116 1747 
z
" transform="scale(0.015625)"/>
       <path id="DejaVuSans-69" d="M 603 3500 
L 1178 3500 
L 1178 0 
L 603 0 
L 603 3500 
z
M 603 4863 
L 1178 4863 
L 1178 4134 
L 603 4134 
L 603 4863 
z
" transform="scale(0.015625)"/>
       <path id="DejaVuSans-6c" d="M 603 4863 
L 1178 4863 
L 1178 0 
L 603 0 
L 603 4863 
z
" transform="scale(0.015625)"/>
       <path id="DejaVuSans-61" d="M 2194 1759 
Q 1497 1759 1228 1600 
Q 959 1441 959 1056 
Q 959 750 1161 570 
Q 1363 391 1709 391 
Q 2188 391 2477 730 
Q 2766 1069 2766 1631 
L 2766 1759 
L 2194 1759 
z
M 3341 1997 
L 3341 0 
L 2766 0 
L 2766 531 
Q 2569 213 2275 61 
Q 1981 -91 1556 -91 
Q 1019 -91 701 211 
Q 384 513 384 1019 
Q 384 1609 779 1909 
Q 1175 2209 1959 2209 
L 2766 2209 
L 2766 2266 
Q 2766 2663 2505 2880 
Q 2244 3097 1772 3097 
Q 1472 3097 1187 3025 
Q 903 2953 641 2809 
L 641 3341 
Q 956 3463 1253 3523 
Q 1550 3584 1831 3584 
Q 2591 3584 2966 3190 
Q 3341 2797 3341 1997 
z
" transform="scale(0.015625)"/>
       <path id="DejaVuSans-72" d="M 2631 2963 
Q 2534 3019 2420 3045 
Q 2306 3072 2169 3072 
Q 1681 3072 1420 2755 
Q 1159 2438 1159 1844 
L 1159 0 
L 581 0 
L 581 3500 
L 1159 3500 
L 1159 2956 
Q 1341 3275 1631 3429 
Q 1922 3584 2338 3584 
Q 2397 3584 2469 3576 
Q 2541 3569 2628 3553 
L 2631 2963 
z
" transform="scale(0.015625)"/>
       <path id="DejaVuSans-20" transform="scale(0.015625)"/>
       <path id="DejaVuSans-73" d="M 2834 3397 
L 2834 2853 
Q 2591 2978 2328 3040 
Q 2066 3103 1784 3103 
Q 1356 3103 1142 2972 
Q 928 2841 928 2578 
Q 928 2378 1081 2264 
Q 1234 2150 1697 2047 
L 1894 2003 
Q 2506 1872 2764 1633 
Q 3022 1394 3022 966 
Q 3022 478 2636 193 
Q 2250 -91 1575 -91 
Q 1294 -91 989 -36 
Q 684 19 347 128 
L 347 722 
Q 666 556 975 473 
Q 1284 391 1588 391 
Q 1994 391 2212 530 
Q 2431 669 2431 922 
Q 2431 1156 2273 1281 
Q 2116 1406 1581 1522 
L 1381 1569 
Q 847 1681 609 1914 
Q 372 2147 372 2553 
Q 372 3047 722 3315 
Q 1072 3584 1716 3584 
Q 2034 3584 2315 3537 
Q 2597 3491 2834 3397 
z
" transform="scale(0.015625)"/>
       <path id="DejaVuSans-65" d="M 3597 1894 
L 3597 1613 
L 953 1613 
Q 991 1019 1311 708 
Q 1631 397 2203 397 
Q 2534 397 2845 478 
Q 3156 559 3463 722 
L 3463 178 
Q 3153 47 2828 -22 
Q 2503 -91 2169 -91 
Q 1331 -91 842 396 
Q 353 884 353 1716 
Q 353 2575 817 3079 
Q 1281 3584 2069 3584 
Q 2775 3584 3186 3129 
Q 3597 2675 3597 1894 
z
M 3022 2063 
Q 3016 2534 2758 2815 
Q 2500 3097 2075 3097 
Q 1594 3097 1305 2825 
Q 1016 2553 972 2059 
L 3022 2063 
z
" transform="scale(0.015625)"/>
       <path id="DejaVuSans-63" d="M 3122 3366 
L 3122 2828 
Q 2878 2963 2633 3030 
Q 2388 3097 2138 3097 
Q 1578 3097 1268 2742 
Q 959 2388 959 1747 
Q 959 1106 1268 751 
Q 1578 397 2138 397 
Q 2388 397 2633 464 
Q 2878 531 3122 666 
L 3122 134 
Q 2881 22 2623 -34 
Q 2366 -91 2075 -91 
Q 1284 -91 818 406 
Q 353 903 353 1747 
Q 353 2603 823 3093 
Q 1294 3584 2113 3584 
Q 2378 3584 2631 3529 
Q 2884 3475 3122 3366 
z
" transform="scale(0.015625)"/>
       <path id="DejaVuSans-74" d="M 1172 4494 
L 1172 3500 
L 2356 3500 
L 2356 3053 
L 1172 3053 
L 1172 1153 
Q 1172 725 1289 603 
Q 1406 481 1766 481 
L 2356 481 
L 2356 0 
L 1766 0 
Q 1100 0 847 248 
Q 594 497 594 1153 
L 594 3053 
L 172 3053 
L 172 3500 
L 594 3500 
L 594 4494 
L 1172 4494 
z
" transform="scale(0.015625)"/>
       <path id="DejaVuSans-6f" d="M 1959 3097 
Q 1497 3097 1228 2736 
Q 959 2375 959 1747 
Q 959 1119 1226 758 
Q 1494 397 1959 397 
Q 2419 397 2687 759 
Q 2956 1122 2956 1747 
Q 2956 2369 2687 2733 
Q 2419 3097 1959 3097 
z
M 1959 3584 
Q 2709 3584 3137 3096 
Q 3566 2609 3566 1747 
Q 3566 888 3137 398 
Q 2709 -91 1959 -91 
Q 1206 -91 779 398 
Q 353 888 353 1747 
Q 353 2609 779 3096 
Q 1206 3584 1959 3584 
z
" transform="scale(0.015625)"/>
       <path id="DejaVuSans-6e" d="M 3513 2113 
L 3513 0 
L 2938 0 
L 2938 2094 
Q 2938 2591 2744 2837 
Q 2550 3084 2163 3084 
Q 1697 3084 1428 2787 
Q 1159 2491 1159 1978 
L 1159 0 
L 581 0 
L 581 3500 
L 1159 3500 
L 1159 2956 
Q 1366 3272 1645 3428 
Q 1925 3584 2291 3584 
Q 2894 3584 3203 3211 
Q 3513 2838 3513 2113 
z
" transform="scale(0.015625)"/>
      </defs>
      <use xlink:href="#DejaVuSans-70"/>
      <use xlink:href="#DejaVuSans-69" x="63.476562"/>
      <use xlink:href="#DejaVuSans-6c" x="91.259766"/>
      <use xlink:href="#DejaVuSans-6c" x="119.042969"/>
      <use xlink:href="#DejaVuSans-61" x="146.826172"/>
      <use xlink:href="#DejaVuSans-72" x="208.105469"/>
      <use xlink:href="#DejaVuSans-20" x="249.21875"/>
      <use xlink:href="#DejaVuSans-73" x="281.005859"/>
      <use xlink:href="#DejaVuSans-65" x="333.105469"/>
      <use xlink:href="#DejaVuSans-63" x="394.628906"/>
      <use xlink:href="#DejaVuSans-74" x="449.609375"/>
      <use xlink:href="#DejaVuSans-69" x="488.818359"/>
      <use xlink:href="#DejaVuSans-6f" x="516.601562"/>
      <use xlink:href="#DejaVuSans-6e" x="577.783203"/>
      <use xlink:href="#DejaVuSans-73" x="641.162109"/>
     </g>
    </g>
    <g id="line2d_6">
     <path d="M 335.873437 47.508441 
L 335.873437 42.695941 
" style="fill: none; stroke: #ff0000; stroke-width: 1.5"/>
    </g>
    <g id="line2d_7">
     <path d="M 325.873437 47.508441 
L 345.873437 47.508441 
" style="fill: none; stroke: #ff0000; stroke-width: 1.5; stroke-linecap: square"/>
    </g>
    <g id="line2d_8">
     <g>
      <use xlink:href="#md15f20a629" x="335.873437" y="42.695941" style="fill: #ff0000; stroke: #ff0000"/>
     </g>
    </g>
    <g id="text_2">
     <!-- half pillar heights -->
     <g transform="translate(353.873437 47.508441) scale(0.1 -0.1)">
      <defs>
       <path id="DejaVuSans-68" d="M 3513 2113 
L 3513 0 
L 2938 0 
L 2938 2094 
Q 2938 2591 2744 2837 
Q 2550 3084 2163 3084 
Q 1697 3084 1428 2787 
Q 1159 2491 1159 1978 
L 1159 0 
L 581 0 
L 581 4863 
L 1159 4863 
L 1159 2956 
Q 1366 3272 1645 3428 
Q 1925 3584 2291 3584 
Q 2894 3584 3203 3211 
Q 3513 2838 3513 2113 
z
" transform="scale(0.015625)"/>
       <path id="DejaVuSans-66" d="M 2375 4863 
L 2375 4384 
L 1825 4384 
Q 1516 4384 1395 4259 
Q 1275 4134 1275 3809 
L 1275 3500 
L 2222 3500 
L 2222 3053 
L 1275 3053 
L 1275 0 
L 697 0 
L 697 3053 
L 147 3053 
L 147 3500 
L 697 3500 
L 697 3744 
Q 697 4328 969 4595 
Q 1241 4863 1831 4863 
L 2375 4863 
z
" transform="scale(0.015625)"/>
       <path id="DejaVuSans-67" d="M 2906 1791 
Q 2906 2416 2648 2759 
Q 2391 3103 1925 3103 
Q 1463 3103 1205 2759 
Q 947 2416 947 1791 
Q 947 1169 1205 825 
Q 1463 481 1925 481 
Q 2391 481 2648 825 
Q 2906 1169 2906 1791 
z
M 3481 434 
Q 3481 -459 3084 -895 
Q 2688 -1331 1869 -1331 
Q 1566 -1331 1297 -1286 
Q 1028 -1241 775 -1147 
L 775 -588 
Q 1028 -725 1275 -790 
Q 1522 -856 1778 -856 
Q 2344 -856 2625 -561 
Q 2906 -266 2906 331 
L 2906 616 
Q 2728 306 2450 153 
Q 2172 0 1784 0 
Q 1141 0 747 490 
Q 353 981 353 1791 
Q 353 2603 747 3093 
Q 1141 3584 1784 3584 
Q 2172 3584 2450 3431 
Q 2728 3278 2906 2969 
L 2906 3500 
L 3481 3500 
L 3481 434 
z
" transform="scale(0.015625)"/>
      </defs>
      <use xlink:href="#DejaVuSans-68"/>
      <use xlink:href="#DejaVuSans-61" x="63.378906"/>
      <use xlink:href="#DejaVuSans-6c" x="124.658203"/>
      <use xlink:href="#DejaVuSans-66" x="152.441406"/>
      <use xlink:href="#DejaVuSans-20" x="187.646484"/>
      <use xlink:href="#DejaVuSans-70" x="219.433594"/>
      <use xlink:href="#DejaVuSans-69" x="282.910156"/>
      <use xlink:href="#DejaVuSans-6c" x="310.693359"/>
      <use xlink:href="#DejaVuSans-6c" x="338.476562"/>
      <use xlink:href="#DejaVuSans-61" x="366.259766"/>
      <use xlink:href="#DejaVuSans-72" x="427.539062"/>
      <use xlink:href="#DejaVuSans-20" x="468.652344"/>
      <use xlink:href="#DejaVuSans-68" x="500.439453"/>
      <use xlink:href="#DejaVuSans-65" x="563.818359"/>
      <use xlink:href="#DejaVuSans-69" x="625.341797"/>
      <use xlink:href="#DejaVuSans-67" x="653.125"/>
      <use xlink:href="#DejaVuSans-68" x="716.601562"/>
      <use xlink:href="#DejaVuSans-74" x="779.980469"/>
      <use xlink:href="#DejaVuSans-73" x="819.189453"/>
     </g>
    </g>
   </g>
  </g>
 </g>
 <defs>
  <clipPath id="p5fab68d6cf">
   <rect x="10.8" y="16.231878" width="439.2" height="219.536243"/>
  </clipPath>
 </defs>
</svg>
