<?xml version="1.0" encoding="utf-8" standalone="no"?>
<!DOCTYPE svg PUBLIC "-//W3C//DTD SVG 1.1//EN"
  "http://www.w3.org/Graphics/SVG/1.1/DTD/svg11.dtd">
<svg xmlns:xlink="http://www.w3.org/1999/xlink" width="460.8pt" height="252pt" viewBox="0 0 460.8 252" xmlns="http://www.w3.org/2000/svg" version="1.1">
 <metadata>
  <rdf:RDF xmlns:dc="http://purl.org/dc/elements/1.1/" xmlns:cc="http://creativecommons.org/ns#" xmlns:rdf="http://www.w3.org/1999/02/22-rdf-syntax-ns#">
   <cc:Work>
    <dc:type rdf:resource="http://purl.org/dc/dcmitype/StillImage"/>
    <dc:date>2023-02-02T10:41:16.651003</dc:date>
    <dc:format>image/svg+xml</dc:format>
    <dc:creator>
     <cc:Agent>
      <dc:title>Matplotlib v3.6.3, https://matplotlib.org/</dc:title>
     </cc:Agent>
    </dc:creator>
   </cc:Work>
  </rdf:RDF>
 </metadata>
 <defs>
  <style type="text/css">*{stroke-linejoin: round; stroke-linecap: butt}</style>
 </defs>
 <g id="figure_1">
  <g id="patch_1">
   <path d="M 0 252 
L 460.8 252 
L 460.8 0 
L 0 0 
z
" style="fill: #ffffff"/>
  </g>
  <g id="axes_1">
   <g id="patch_2">
    <path d="M 230.4 225.789201 
L 230.4 26.210799 
L 228.354024 26.210799 
L 224.283552 26.629514 
L 220.277292 27.462548 
L 216.377303 28.701156 
L 208.218182 31.760826 
L 208.218182 220.239174 
L 216.377303 223.298844 
L 220.277292 224.537452 
L 224.283552 225.370486 
L 228.354024 225.789201 
L 230.4 225.789201 
L 230.4 225.789201 
L 230.4 26.210799 
L 232.445976 26.210799 
L 236.516448 26.629514 
L 240.522708 27.462548 
L 244.422697 28.701156 
L 252.581818 31.760826 
L 252.581818 220.239174 
L 244.422697 223.298844 
L 240.522708 224.537452 
L 236.516448 225.370486 
L 232.445976 225.789201 
z
" clip-path="url(#pd84ba6c850)" style="fill: #1f77b4; opacity: 0.5"/>
   </g>
   <g id="patch_3">
    <path d="M 208.218182 220.239174 
L 208.218182 31.760826 
L 163.854545 48.39719 
L 163.854545 203.60281 
L 208.218182 220.239174 
L 252.581818 220.239174 
L 252.581818 31.760826 
L 296.945455 48.39719 
L 296.945455 203.60281 
L 252.581818 220.239174 
z
" clip-path="url(#pd84ba6c850)" style="fill: #ff7f0e; opacity: 0.5"/>
   </g>
   <g id="patch_4">
    <path d="M 163.854545 203.60281 
L 163.854545 48.39719 
L 119.490909 65.033554 
L 119.490909 186.966446 
L 163.854545 203.60281 
L 296.945455 203.60281 
L 296.945455 48.39719 
L 341.309091 65.033554 
L 341.309091 186.966446 
L 296.945455 203.60281 
z
" clip-path="url(#pd84ba6c850)" style="fill: #2ca02c; opacity: 0.5"/>
   </g>
   <g id="patch_5">
    <path d="M 119.490909 186.966446 
L 119.490909 65.033554 
L 75.127273 81.669917 
L 75.127273 170.330083 
L 119.490909 186.966446 
L 341.309091 186.966446 
L 341.309091 65.033554 
L 385.672727 81.669917 
L 385.672727 170.330083 
L 341.309091 186.966446 
z
" clip-path="url(#pd84ba6c850)" style="fill: #d62728; opacity: 0.5"/>
   </g>
   <g id="patch_6">
    <path d="M 75.127273 170.330083 
L 75.127273 81.669917 
L 56.630673 88.606142 
L 53.076433 90.139326 
L 49.687315 92.009395 
L 46.495159 94.198782 
L 43.529951 96.686917 
L 40.819549 99.450428 
L 38.389413 102.463353 
L 36.262374 105.697388 
L 34.458414 109.122151 
L 32.994479 112.705469 
L 31.884321 116.413679 
L 31.138372 120.211946 
L 30.763636 124.064588 
L 30.763636 127.935412 
L 31.138372 131.788054 
L 31.884321 135.586321 
L 32.994479 139.294531 
L 34.458414 142.877849 
L 36.262374 146.302612 
L 38.389413 149.536647 
L 40.819549 152.549572 
L 43.529951 155.313083 
L 46.495159 157.801218 
L 49.687315 159.990605 
L 53.076433 161.860674 
L 56.630673 163.393858 
L 75.127273 170.330083 
L 385.672727 170.330083 
L 385.672727 81.669917 
L 404.169327 88.606142 
L 407.723567 90.139326 
L 411.112685 92.009395 
L 414.304841 94.198782 
L 417.270049 96.686917 
L 419.980451 99.450428 
L 422.410587 102.463353 
L 424.537626 105.697388 
L 426.341586 109.122151 
L 427.805521 112.705469 
L 428.915679 116.413679 
L 429.661628 120.211946 
L 430.036364 124.064588 
L 430.036364 127.935412 
L 429.661628 131.788054 
L 428.915679 135.586321 
L 427.805521 139.294531 
L 426.341586 142.877849 
L 424.537626 146.302612 
L 422.410587 149.536647 
L 419.980451 152.549572 
L 417.270049 155.313083 
L 414.304841 157.801218 
L 411.112685 159.990605 
L 407.723567 161.860674 
L 404.169327 163.393858 
L 385.672727 170.330083 
z
" clip-path="url(#pd84ba6c850)" style="fill: #9467bd; opacity: 0.5"/>
   </g>
   <g id="line2d_1">
    <path d="M 404.169327 163.393858 
L 244.422697 223.298844 
L 240.522708 224.537452 
L 236.516448 225.370486 
L 232.445976 225.789201 
L 228.354024 225.789201 
L 224.283552 225.370486 
L 220.277292 224.537452 
L 216.377303 223.298844 
L 56.630673 163.393858 
L 53.076433 161.860674 
L 49.687315 159.990605 
L 46.495159 157.801218 
L 43.529951 155.313083 
L 40.819549 152.549572 
L 38.389413 149.536647 
L 36.262374 146.302612 
L 34.458414 142.877849 
L 32.994479 139.294531 
L 31.884321 135.586321 
L 31.138372 131.788054 
L 30.763636 127.935412 
L 30.763636 124.064588 
L 31.138372 120.211946 
L 31.884321 116.413679 
L 32.994479 112.705469 
L 34.458414 109.122151 
L 36.262374 105.697388 
L 38.389413 102.463353 
L 40.819549 99.450428 
L 43.529951 96.686917 
L 46.495159 94.198782 
L 49.687315 92.009395 
L 53.076433 90.139326 
L 56.630673 88.606142 
L 216.377303 28.701156 
L 220.277292 27.462548 
L 224.283552 26.629514 
L 228.354024 26.210799 
L 232.445976 26.210799 
L 236.516448 26.629514 
L 240.522708 27.462548 
L 244.422697 28.701156 
L 404.169327 88.606142 
L 407.723567 90.139326 
L 411.112685 92.009395 
L 414.304841 94.198782 
L 417.270049 96.686917 
L 419.980451 99.450428 
L 422.410587 102.463353 
L 424.537626 105.697388 
L 426.341586 109.122151 
L 427.805521 112.705469 
L 428.915679 116.413679 
L 429.661628 120.211946 
L 430.036364 124.064588 
L 430.036364 127.935412 
L 429.661628 131.788054 
L 428.915679 135.586321 
L 427.805521 139.294531 
L 426.341586 142.877849 
L 424.537626 146.302612 
L 422.410587 149.536647 
L 419.980451 152.549572 
L 417.270049 155.313083 
L 414.304841 157.801218 
L 411.112685 159.990605 
L 407.723567 161.860674 
L 404.169327 163.393858 
" clip-path="url(#pd84ba6c850)" style="fill: none; stroke: #000000; stroke-width: 1.5; stroke-linecap: square"/>
   </g>
   <g id="line2d_2">
    <path d="M 230.4 235.768122 
L 230.4 16.231878 
" clip-path="url(#pd84ba6c850)" style="fill: none; stroke-dasharray: 9.6,2.4,1.5,2.4; stroke-dashoffset: 0; stroke: #000000; stroke-width: 1.5"/>
   </g>
   <g id="line2d_3">
    <path d="M 10.8 126 
L 450 126 
" clip-path="url(#pd84ba6c850)" style="fill: none; stroke-dasharray: 9.6,2.4,1.5,2.4; stroke-dashoffset: 0; stroke: #000000; stroke-width: 1.5"/>
   </g>
  </g>
 </g>
 <defs>
  <clipPath id="pd84ba6c850">
   <rect x="10.8" y="16.231878" width="439.2" height="219.536243"/>
  </clipPath>
 </defs>
</svg>
